<?xml version="1.0" encoding="UTF-8"?>
<svg xmlns="http://www.w3.org/2000/svg" xmlns:xlink="http://www.w3.org/1999/xlink" width="25px" height="25px" viewBox="0 0 25 25" version="1.1">
<g id="surface1">
<path style=" stroke:none;fill-rule:evenodd;fill:rgb(96.078431%,13.333333%,30.980392%);fill-opacity:1;" d="M 0 1.542969 L 7.777344 9.355469 C 8.253906 9.832031 9.054688 9.832031 9.550781 9.355469 L 10.007812 8.875 C 10.742188 8.136719 11.71875 7.765625 12.714844 7.765625 C 13.691406 7.765625 14.664062 8.136719 15.402344 8.875 L 22.894531 16.402344 C 23.265625 16.773438 23.785156 16.882812 24.261719 16.6875 C 24.542969 16.554688 24.78125 16.339844 24.910156 16.078125 L 24.910156 1.195312 C 24.910156 0.542969 24.367188 0 23.695312 0 L 1.214844 0 C 0.542969 0 0 0.542969 0 1.195312 Z M 0 1.542969 "/>
<path style=" stroke:none;fill-rule:evenodd;fill:rgb(99.607843%,69.411765%,0.392157%);fill-opacity:1;" d="M 14.011719 10.832031 L 24.90625 21.972656 L 24.90625 23.800781 C 24.90625 24.453125 24.367188 24.996094 23.695312 24.996094 L 1.210938 24.996094 C 0.539062 24.996094 -0.00390625 24.453125 -0.00390625 23.800781 L -0.00390625 22.253906 C 0.0625 22.191406 0.105469 22.125 0.171875 22.082031 L 11.152344 10.832031 C 11.933594 10.027344 13.234375 10.027344 14.011719 10.832031 Z M 22.308594 20.929688 C 21.636719 20.929688 21.117188 21.472656 21.117188 22.125 C 21.117188 22.800781 21.636719 23.34375 22.308594 23.34375 C 22.957031 23.34375 23.5 22.800781 23.5 22.125 C 23.5 21.472656 22.957031 20.929688 22.308594 20.929688 Z M 22.308594 20.929688 "/>
</g>
</svg>
